Coordinates
version=1
nRows=13
nColumns=40
inDegrees=yes

Units are S.I. units (second, meters, Newtons, ...)
Angles are in degrees.

endheader
time	pelvis_tilt	pelvis_list	pelvis_rotation	pelvis_tx	pelvis_ty	pelvis_tz	hip_flexion_r	hip_adduction_r	hip_rotation_r	knee_angle_r	knee_angle_r_beta	ankle_angle_r	subtalar_angle_r	mtp_angle_r	hip_flexion_l	hip_adduction_l	hip_rotation_l	knee_angle_l	knee_angle_l_beta	ankle_angle_l	subtalar_angle_l	mtp_angle_l	lumbar_extension	lumbar_bending	lumbar_rotation	arm_flex_r	arm_add_r	arm_rot_r	elbow_flex_r	pro_sup_r	wrist_flex_r	wrist_dev_r	arm_flex_l	arm_add_l	arm_rot_l	elbow_flex_l	pro_sup_l	wrist_flex_l	wrist_dev_l
     49.29750000	     -2.33077016	     -4.97279214	     -1.54297429	      1.04877849	      0.92923705	      0.46442547	     15.40066096	      1.46647877	    -12.47718718	     18.49119873	     18.49119873	      7.39578507	      0.65226232	     -5.42060169	      8.55284633	    -12.61784421	     -6.70511955	     40.21049733	     40.21049733	     12.94737331	    -16.04584777	     -2.46804768	     -9.30502403	      6.98434362	      1.91761321	      6.68015401	    -13.23787254	     -2.61101138	     32.79021008	     45.63883292	      0.00000000	      0.00000000	     14.39889589	    -14.03645706	     -6.76555408	     53.52755479	     46.48031904	      0.00000000	      0.00000000
     49.31057143	     -2.26233165	     -4.99427506	     -1.02797960	      1.04895448	      0.92962266	      0.46650055	     14.79268551	      1.52066236	    -13.15807383	     18.28621866	     18.28621866	      7.77408780	      1.12678191	     -5.66303647	     10.65155449	    -12.92870352	     -5.32349202	     44.10502429	     44.10502429	     12.30937742	    -16.65760881	     -0.30261778	     -9.22070734	      7.07790149	      2.08196235	      7.80840619	    -13.78934921	     -1.86098835	     34.84228444	     45.54207026	      0.00000000	      0.00000000	     14.11876264	    -13.36603719	     -5.97600381	     50.02561795	     46.39073858	      0.00000000	      0.00000000
     49.32364286	     -2.11789454	     -5.09692860	     -0.50729768	      1.04892664	      0.92997476	      0.46852412	     14.11590594	      1.70950163	    -13.68089297	     18.07124919	     18.07124919	      8.10235453	      1.25832326	     -5.80506648	     12.62447615	    -13.30213529	     -4.09073734	     47.64475580	     47.64475580	     11.28447991	    -17.17473548	      0.68768307	     -9.30385486	      7.22876641	      1.88477641	      9.55082087	    -14.07934766	     -1.76009285	     36.26704223	     45.50004440	      0.00000000	      0.00000000	     13.00026314	    -12.97598647	     -5.51146157	     48.37265924	     46.32628184	      0.00000000	      0.00000000
     49.33671429	     -2.03581103	     -5.18100456	      0.02342248	      1.04864712	      0.93022390	      0.47030358	     13.51517009	      1.87156538	    -14.20486534	     17.83016238	     17.83016238	      8.35948756	      1.41848257	     -6.05882691	     14.74268364	    -13.51260673	     -2.77825522	     51.03581480	     51.03581480	     11.15942294	    -17.29686123	      3.80105274	     -9.34883853	      7.35552001	      2.16863824	     10.78488642	    -14.75886968	     -1.14179581	     38.36212696	     45.40828667	      0.00000000	      0.00000000	     12.58020347	    -12.31430410	     -4.72490611	     45.60961442	     46.23379309	      0.00000000	      0.00000000
     49.34978571	     -1.93397730	     -5.30899592	      0.55843695	      1.04824070	      0.93040111	      0.47204339	     12.92399567	      2.11271253	    -14.61983770	     17.61401879	     17.61401879	      8.65665417	      1.33618556	     -6.20058451	     16.72346351	    -13.75980751	     -1.64968806	     53.86816395	     53.86816395	     10.77840003	    -17.44377135	      5.59307831	     -9.43019686	      7.50370954	      2.18665367	     12.31627895	    -15.28475994	     -0.89570842	     40.26231872	     45.34533350	      0.00000000	      0.00000000	     11.68595800	    -11.84460042	     -4.11222180	     43.64615623	     46.15510981	      0.00000000	      0.00000000
     49.36285714	     -1.90225536	     -5.40251502	      1.08887791	      1.04773457	      0.93052458	      0.47362508	     12.40948217	      2.32150896	    -14.99168269	     17.37673195	     17.37673195	      8.89733912	      1.21649336	     -6.27025551	     18.66448396	    -13.92592101	     -0.67155633	     56.10733855	     56.10733855	     10.25594327	    -17.62305280	      6.62134512	     -9.43854802	      7.62153506	      2.15005710	     13.97354417	    -15.69864897	     -0.85121412	     41.87689484	     45.29967560	      0.00000000	      0.00000000	     10.61524229	    -11.42053999	     -3.65784725	     41.95327030	     46.08825879	      0.00000000	      0.00000000
     49.37592857	     -1.86673207	     -5.45918608	      1.60245859	      1.04712067	      0.93065501	      0.47506579	     11.92652772	      2.49665211	    -15.28778484	     17.16832777	     17.16832777	      9.07291678	      0.97163349	     -6.44053171	     20.56080903	    -13.98264065	      0.20577699	     57.93428307	     57.93428307	     10.61143057	    -17.59155348	      9.25597174	     -9.49778373	      7.68249861	      2.68102432	     14.90498861	    -16.66361882	     -0.37341644	     44.66714740	     45.20004489	      0.00000000	      0.00000000	     10.31481047	    -10.75770306	     -2.78130257	     38.99771518	     45.98527087	      0.00000000	      0.00000000
     49.38900000	     -1.85458813	     -5.52478172	      2.12388791	      1.04654509	      0.93080262	      0.47641155	     11.45550141	      2.68394971	    -15.58018912	     16.93572501	     16.93572501	      9.29816331	      0.77513233	     -6.43614180	     22.27173502	    -14.08733396	      0.84736503	     58.97116999	     58.97116999	     10.22143284	    -17.79027712	      9.41013173	     -9.50187023	      7.73392815	      2.53927352	     16.73890741	    -16.93225013	     -0.61579515	     45.99232641	     45.17750365	      0.00000000	      0.00000000	      8.95072155	    -10.45112613	     -2.52069689	     37.86564149	     45.93458347	      0.00000000	      0.00000000
     49.40207143	     -1.82617173	     -5.47318586	      2.63223246	      1.04599728	      0.93107334	      0.47766732	     10.94852964	      2.76993765	    -15.77150885	     16.67286476	     16.67286476	      9.50185024	      0.45136761	     -6.41215820	     23.79524083	    -14.07958324	      1.22364545	     59.37219167	     59.37219167	     10.10792371	    -17.99140735	      9.75556304	     -9.55066351	      7.64266489	      2.31083376	     18.54388096	    -17.14359066	     -0.81214004	     47.70824402	     45.13880935	      0.00000000	      0.00000000	      7.62816503	    -10.19267411	     -2.21908576	     36.35354552	     45.87864293	      0.00000000	      0.00000000
     49.41514286	     -1.76907127	     -5.31117604	      3.05207178	      1.04548391	      0.93144568	      0.47872305	     10.45260139	      2.70906517	    -15.93531283	     16.51681496	     16.51681496	      9.75293983	      0.25263249	     -6.42772615	     25.06942482	    -13.99817474	      1.27318844	     59.13067767	     59.13067767	     10.07800459	    -18.10627302	      9.84719931	     -9.63718795	      7.36703373	      2.85029681	     20.12371751	    -17.80569433	     -1.05311458	     48.49291760	     45.13147586	      0.00000000	      0.00000000	      6.42667710	     -9.73646522	     -2.08753131	     35.67589684	     45.84443054	      0.00000000	      0.00000000
     49.42821429	     -1.81325969	     -5.33605237	      3.58026684	      1.04489920	      0.93171554	      0.47972152	      9.95288741	      2.93691936	    -15.93804190	     16.04383263	     16.04383263	      9.70815134	     -0.46925218	     -6.51825737	     26.47489243	    -14.02411960	      1.43983715	     58.48095491	     58.48095491	     10.60888659	    -18.29813286	     11.70371121	     -9.64338605	      7.43499476	      2.89316793	     20.65110777	    -18.47138053	     -1.18179754	     53.57687975	     44.98635246	      0.00000000	      0.00000000	      6.26420369	     -9.32913011	     -1.22031651	     31.55191711	     45.74426525	      0.00000000	      0.00000000
     49.44128571	     -1.76401067	     -5.22253490	      4.10838149	      1.04445942	      0.93213604	      0.48045965	      9.37482909	      2.95066610	    -16.15029721	     15.71124158	     15.71124158	      9.94254562	     -0.73298644	     -6.49401967	     27.46175882	    -13.92633874	      1.32107388	     57.07968603	     57.07968603	     10.75722766	    -18.51271325	     11.97775645	     -9.67151885	      7.29679151	      2.58081416	     22.41673183	    -18.48047665	     -1.61704927	     55.10368744	     44.96539066	      0.00000000	      0.00000000	      4.83594919	     -9.20549749	     -1.03441844	     30.50641032	     45.69858910	      0.00000000	      0.00000000
     49.45435714	     -1.77901043	     -5.12125023	      4.57395639	      1.04390832	      0.93238288	      0.48113413	      8.85869274	      2.99337492	    -16.21262343	     15.31966507	     15.31966507	     10.05666897	     -1.04051390	     -6.45927908	     28.41556230	    -13.84039949	      1.07486057	     55.32555666	     55.32555666	     11.00475049	    -18.64746986	     12.46996838	     -9.72516974	      7.13749919	      2.44762930	     24.08203783	    -18.64133128	     -2.12156515	     57.10602517	     44.93330485	      0.00000000	      0.00000000	      3.49142437	     -8.97971060	     -0.79225548	     29.28033790	     45.64806921	      0.00000000	      0.00000000
